<?xml version="1.0" encoding="utf-8"?>
<!-- Generator: Adobe Illustrator 21.0.0, SVG Export Plug-In . SVG Version: 6.00 Build 0)  -->
<svg version="1.1" id="Layer_1" xmlns="http://www.w3.org/2000/svg" xmlns:xlink="http://www.w3.org/1999/xlink" x="0px" y="0px"
	 viewBox="0 0 325 400" style="enable-background:new 0 0 325 400;" xml:space="preserve">
<style type="text/css">
	.st0{fill:#C7B299;}
	.st1{font-family:'PTSans-Narrow';}
	.st2{font-size:34.39px;}
	.st3{fill:#999999;}
	.st4{fill:none;stroke:#999999;stroke-width:3;stroke-miterlimit:10;}
	.st5{fill:#FF7BAC;}
	.st6{fill:#603813;}
</style>
<title>missing</title>
<rect class="st0" width="325" height="400"/>
<text transform="matrix(0.93 0 0 1 93.9702 316.29)" class="st1 st2">MISSING ME</text>
<polygon class="st3" points="106.5,162.8 61.5,251 151.5,251 "/>
<line class="st4" x1="120.4" y1="193.9" x2="158.9" y2="208.6"/>
<line class="st4" x1="95.6" y1="192.4" x2="54" y2="208.4"/>
<polygon class="st3" points="210.1,162.8 165.1,251 255.1,251 "/>
<line class="st4" x1="224" y1="193.9" x2="262.5" y2="208.6"/>
<line class="st4" x1="199.2" y1="192.4" x2="157.6" y2="208.4"/>
<ellipse class="st5" cx="175.9" cy="90.2" rx="7.9" ry="8.2"/>
<ellipse class="st5" cx="191.1" cy="90.2" rx="7.9" ry="8.2"/>
<polygon class="st5" points="183.5,110 197.1,95.5 169.9,95.5 "/>
<rect x="180.6" y="91.9" class="st5" width="6.3" height="5.3"/>
<ellipse class="st5" cx="128.9" cy="97.2" rx="7.9" ry="8.2"/>
<ellipse class="st5" cx="144.1" cy="97.2" rx="7.9" ry="8.2"/>
<polygon class="st5" points="136.5,117 150.1,102.5 122.8,102.5 "/>
<rect x="133.6" y="98.9" class="st5" width="6.3" height="5.3"/>
<ellipse class="st5" cx="154.9" cy="130.2" rx="7.9" ry="8.2"/>
<ellipse class="st5" cx="170.1" cy="130.2" rx="7.9" ry="8.2"/>
<polygon class="st5" points="162.5,150 176.1,135.5 148.9,135.5 "/>
<rect x="159.6" y="131.9" class="st5" width="6.3" height="5.3"/>
<path class="st6" d="M146,169.5c0,8-1.3,15.9-3.9,23.5H70.8c-2.6-7.6-3.9-15.5-3.8-23.5c0-30.1,17.7-54.5,39.5-54.5
	S146,139.4,146,169.5z"/>
<ellipse class="st3" cx="106.5" cy="159.1" rx="31" ry="37.1"/>
<circle cx="210.5" cy="143.5" r="24.5"/>
<ellipse class="st3" cx="210.1" cy="159.1" rx="31" ry="37.1"/>
</svg>
