<?xml version="1.0" encoding="utf-8"?>
<!-- Generator: Adobe Illustrator 21.0.0, SVG Export Plug-In . SVG Version: 6.00 Build 0)  -->
<svg version="1.1" id="Layer_1" xmlns="http://www.w3.org/2000/svg" xmlns:xlink="http://www.w3.org/1999/xlink" x="0px" y="0px"
	 viewBox="0 0 325 400" style="enable-background:new 0 0 325 400;" xml:space="preserve">
<style type="text/css">
	.st0{fill:#C7B299;}
	.st1{enable-background:new    ;}
	.st2{fill:#999999;}
	.st3{fill:none;stroke:#999999;stroke-width:3;stroke-miterlimit:10;}
	.st4{fill:#FF7BAC;}
	.st5{fill:#603813;}
</style>
<title>missing</title>
<rect x="-0.3" y="0.2" class="st0" width="325" height="400"/>
<g class="st1">
	<path d="M109.9,300.5l0.3-3.6h-0.1l-1,3.4l-4.5,10.5h-0.8L99,300.2l-1-3.4h-0.1l0.4,3.6v15.8H96v-24.1h2l5.4,11.8l0.8,2.8h0.1
		l0.8-2.9l5.1-11.8h2.1v24.1h-2.4V300.5z"/>
	<path d="M116.9,292.2h2.4v24.1h-2.4V292.2z"/>
	<path d="M123.7,313.1c0.4,0.3,1,0.6,1.7,0.8c0.7,0.3,1.6,0.4,2.5,0.4c1.2,0,2.2-0.3,2.9-0.9c0.7-0.6,1.1-1.6,1.1-3
		c0-0.9-0.2-1.7-0.6-2.3c-0.4-0.7-1-1.3-1.6-1.8s-1.3-1.1-2.1-1.7c-0.7-0.5-1.4-1.1-2.1-1.8s-1.2-1.4-1.6-2.3
		c-0.4-0.8-0.6-1.9-0.6-3.1c0-1.9,0.5-3.4,1.6-4.3c1.1-0.9,2.5-1.4,4.2-1.4c1.1,0,2,0.1,2.8,0.3c0.8,0.2,1.5,0.5,2,0.8l-0.8,2.3
		c-0.4-0.3-0.9-0.5-1.6-0.7c-0.7-0.2-1.5-0.3-2.5-0.3c-1.2,0-2,0.3-2.6,0.9c-0.6,0.6-0.8,1.4-0.8,2.3c0,0.8,0.2,1.5,0.6,2.1
		c0.4,0.6,1,1.2,1.6,1.8c0.6,0.5,1.3,1.1,2.1,1.7c0.7,0.6,1.4,1.2,2.1,1.9s1.2,1.5,1.6,2.3c0.4,0.9,0.6,1.9,0.6,3.1
		c0,2-0.6,3.6-1.7,4.7c-1.1,1.1-2.7,1.7-4.7,1.7c-1.3,0-2.3-0.1-3.2-0.4c-0.8-0.3-1.5-0.5-2-0.9L123.7,313.1z"/>
	<path d="M137.4,313.1c0.4,0.3,1,0.6,1.7,0.8c0.7,0.3,1.6,0.4,2.5,0.4c1.2,0,2.2-0.3,2.9-0.9c0.7-0.6,1.1-1.6,1.1-3
		c0-0.9-0.2-1.7-0.6-2.3c-0.4-0.7-1-1.3-1.6-1.8s-1.3-1.1-2.1-1.7c-0.7-0.5-1.4-1.1-2.1-1.8s-1.2-1.4-1.6-2.3
		c-0.4-0.8-0.6-1.9-0.6-3.1c0-1.9,0.5-3.4,1.6-4.3c1.1-0.9,2.5-1.4,4.2-1.4c1.1,0,2,0.1,2.8,0.3c0.8,0.2,1.5,0.5,2,0.8l-0.8,2.3
		c-0.4-0.3-0.9-0.5-1.6-0.7c-0.7-0.2-1.5-0.3-2.5-0.3c-1.2,0-2,0.3-2.6,0.9c-0.6,0.6-0.8,1.4-0.8,2.3c0,0.8,0.2,1.5,0.6,2.1
		c0.4,0.6,1,1.2,1.6,1.8c0.6,0.5,1.3,1.1,2.1,1.7c0.7,0.6,1.4,1.2,2.1,1.9s1.2,1.5,1.6,2.3c0.4,0.9,0.6,1.9,0.6,3.1
		c0,2-0.6,3.6-1.7,4.7c-1.1,1.1-2.7,1.7-4.7,1.7c-1.3,0-2.3-0.1-3.2-0.4c-0.8-0.3-1.5-0.5-2-0.9L137.4,313.1z"/>
	<path d="M151.7,292.2h2.4v24.1h-2.4V292.2z"/>
	<path d="M162.1,301l-1.4-3.8h-0.1l0.4,3.8v15.3h-2.3v-24.5h1.4l8.3,15.6l1.3,3.6h0.1l-0.4-3.6v-15.2h2.3v24.5h-1.5L162.1,301z"/>
	<path d="M182,304.3h6.2v10.6c-0.6,0.6-1.4,1-2.3,1.4c-0.9,0.3-1.9,0.5-2.8,0.5c-1.2,0-2.3-0.2-3.2-0.7c-1-0.5-1.8-1.2-2.5-2.3
		c-0.7-1-1.2-2.3-1.6-3.9s-0.6-3.4-0.6-5.6c0-2.2,0.2-4.2,0.7-5.7c0.4-1.6,1-2.9,1.8-3.9s1.6-1.7,2.6-2.2c1-0.5,2-0.7,3-0.7
		s1.9,0.1,2.6,0.2c0.7,0.1,1.3,0.3,1.8,0.6L187,295c-0.4-0.3-0.9-0.4-1.5-0.6c-0.6-0.1-1.3-0.2-2-0.2c-0.7,0-1.5,0.2-2.1,0.5
		s-1.3,0.9-1.8,1.7s-1,1.8-1.3,3.1c-0.3,1.3-0.5,2.9-0.5,4.7c0,3.4,0.5,6,1.5,7.6c1,1.6,2.4,2.5,4.2,2.5c1.1,0,2-0.3,2.8-0.9v-7
		l-4.1-0.7V304.3z"/>
	<path d="M212.3,300.5l0.3-3.6h-0.1l-1,3.4l-4.5,10.5h-0.8l-4.7-10.5l-1-3.4h-0.1l0.4,3.6v15.8h-2.3v-24.1h2l5.4,11.8l0.8,2.8h0.1
		l0.8-2.9l5.1-11.8h2.1v24.1h-2.4V300.5z"/>
	<path d="M218.8,292.2h9.9v2.4h-7.5v8.2h6.9v2.4h-6.9v8.8h7.7v2.4h-10.1V292.2z"/>
</g>
<polygon class="st2" points="106.5,162.8 61.5,251 151.5,251 "/>
<line class="st3" x1="120.4" y1="193.9" x2="158.9" y2="208.6"/>
<line class="st3" x1="95.6" y1="192.4" x2="54" y2="208.4"/>
<polygon class="st2" points="210.1,162.8 165.1,251 255.1,251 "/>
<line class="st3" x1="224" y1="193.9" x2="262.5" y2="208.6"/>
<line class="st3" x1="199.2" y1="192.4" x2="157.6" y2="208.4"/>
<ellipse class="st4" cx="175.9" cy="90.2" rx="7.9" ry="8.2"/>
<ellipse class="st4" cx="191.1" cy="90.2" rx="7.9" ry="8.2"/>
<polygon class="st4" points="183.5,110 197.1,95.5 169.9,95.5 "/>
<rect x="180.6" y="91.9" class="st4" width="6.3" height="5.3"/>
<ellipse class="st4" cx="128.9" cy="97.2" rx="7.9" ry="8.2"/>
<ellipse class="st4" cx="144.1" cy="97.2" rx="7.9" ry="8.2"/>
<polygon class="st4" points="136.5,117 150.1,102.5 122.8,102.5 "/>
<rect x="133.6" y="98.9" class="st4" width="6.3" height="5.3"/>
<ellipse class="st4" cx="154.9" cy="130.2" rx="7.9" ry="8.2"/>
<ellipse class="st4" cx="170.1" cy="130.2" rx="7.9" ry="8.2"/>
<polygon class="st4" points="162.5,150 176.1,135.5 148.9,135.5 "/>
<rect x="159.6" y="131.9" class="st4" width="6.3" height="5.3"/>
<path class="st5" d="M146,169.5c0,8-1.3,15.9-3.9,23.5H70.8c-2.6-7.6-3.9-15.5-3.8-23.5c0-30.1,17.7-54.5,39.5-54.5
	S146,139.4,146,169.5z"/>
<ellipse class="st2" cx="106.5" cy="159.1" rx="31" ry="37.1"/>
<circle cx="210.5" cy="143.5" r="24.5"/>
<ellipse class="st2" cx="210.1" cy="159.1" rx="31" ry="37.1"/>
</svg>
