<?xml version="1.0" encoding="utf-8"?>
<!-- Generator: Adobe Illustrator 21.0.0, SVG Export Plug-In . SVG Version: 6.00 Build 0)  -->
<svg version="1.1" id="Layer_1" xmlns="http://www.w3.org/2000/svg" xmlns:xlink="http://www.w3.org/1999/xlink" x="0px" y="0px"
	 viewBox="0 0 325 400" style="enable-background:new 0 0 325 400;" xml:space="preserve">
<style type="text/css">
	.st0{fill:#C7B299;}
	.st1{enable-background:new    ;}
	.st2{fill:#FFC0AC;}
	.st3{fill:none;stroke:#808080;stroke-width:3;stroke-miterlimit:10;}
	.st4{fill:#808080;}
	.st5{fill:#FFFFFF;}
	.st6{fill:#FF0000;}
	.st7{font-family:'PTSans-Narrow';}
	.st8{font-size:30px;}
</style>
<title>stressed</title>
<rect x="-0.2" y="0" class="st0" width="325" height="400"/>
<g class="st1">
	<path d="M79.4,313.1c0.4,0.3,1,0.6,1.7,0.8c0.7,0.3,1.6,0.4,2.5,0.4c1.2,0,2.2-0.3,2.9-0.9c0.7-0.6,1.1-1.6,1.1-3
		c0-0.9-0.2-1.7-0.6-2.3c-0.4-0.7-1-1.3-1.6-1.8s-1.3-1.1-2.1-1.7c-0.7-0.5-1.4-1.1-2.1-1.8s-1.2-1.4-1.6-2.3
		c-0.4-0.8-0.6-1.9-0.6-3.1c0-1.9,0.5-3.4,1.6-4.3c1.1-0.9,2.5-1.4,4.2-1.4c1.1,0,2,0.1,2.8,0.3c0.8,0.2,1.5,0.5,2,0.8l-0.8,2.3
		c-0.4-0.3-0.9-0.5-1.6-0.7c-0.7-0.2-1.5-0.3-2.5-0.3c-1.2,0-2,0.3-2.6,0.9c-0.6,0.6-0.8,1.4-0.8,2.3c0,0.8,0.2,1.5,0.6,2.1
		c0.4,0.6,1,1.2,1.6,1.8c0.6,0.5,1.3,1.1,2.1,1.7c0.7,0.6,1.4,1.2,2.1,1.9s1.2,1.5,1.6,2.3c0.4,0.9,0.6,1.9,0.6,3.1
		c0,2-0.6,3.6-1.7,4.7c-1.1,1.1-2.7,1.7-4.7,1.7c-1.3,0-2.3-0.1-3.2-0.4c-0.8-0.3-1.5-0.5-2-0.9L79.4,313.1z"/>
	<path d="M105.1,294.6h-5.5v21.7h-2.4v-21.7h-5.5v-2.4h13.4V294.6z"/>
	<path d="M107.6,292.5c0.7-0.2,1.5-0.3,2.3-0.4c0.8-0.1,1.6-0.1,2.3-0.1c0.8,0,1.6,0.1,2.4,0.3c0.7,0.2,1.4,0.6,2,1.1
		c0.6,0.5,1,1.2,1.3,2s0.5,1.9,0.5,3.1c0,1.9-0.4,3.4-1.1,4.6c-0.7,1.1-1.7,1.9-2.9,2.3l1.2,1.3l4.4,9.6h-2.8l-4.8-10.5l-2.4-0.5v11
		h-2.4V292.5z M110,303.6h1.9c1.2,0,2.2-0.4,2.9-1.2s1.1-2,1.1-3.7c0-1.3-0.3-2.3-0.9-3.1c-0.6-0.8-1.5-1.2-2.6-1.2
		c-0.4,0-0.9,0-1.3,0.1s-0.8,0.1-1,0.2V303.6z"/>
	<path d="M122.9,292.2h9.9v2.4h-7.5v8.2h6.9v2.4h-6.9v8.8h7.7v2.4h-10.1V292.2z"/>
	<path d="M136.5,313.1c0.4,0.3,1,0.6,1.7,0.8c0.7,0.3,1.6,0.4,2.5,0.4c1.2,0,2.2-0.3,2.9-0.9c0.7-0.6,1.1-1.6,1.1-3
		c0-0.9-0.2-1.7-0.6-2.3c-0.4-0.7-1-1.3-1.6-1.8s-1.3-1.1-2.1-1.7c-0.7-0.5-1.4-1.1-2.1-1.8s-1.2-1.4-1.6-2.3
		c-0.4-0.8-0.6-1.9-0.6-3.1c0-1.9,0.5-3.4,1.6-4.3c1.1-0.9,2.5-1.4,4.2-1.4c1.1,0,2,0.1,2.8,0.3c0.8,0.2,1.5,0.5,2,0.8l-0.8,2.3
		c-0.4-0.3-0.9-0.5-1.6-0.7c-0.7-0.2-1.5-0.3-2.5-0.3c-1.2,0-2,0.3-2.6,0.9c-0.6,0.6-0.8,1.4-0.8,2.3c0,0.8,0.2,1.5,0.6,2.1
		c0.4,0.6,1,1.2,1.6,1.8c0.6,0.5,1.3,1.1,2.1,1.7c0.7,0.6,1.4,1.2,2.1,1.9s1.2,1.5,1.6,2.3c0.4,0.9,0.6,1.9,0.6,3.1
		c0,2-0.6,3.6-1.7,4.7c-1.1,1.1-2.7,1.7-4.7,1.7c-1.3,0-2.3-0.1-3.2-0.4c-0.8-0.3-1.5-0.5-2-0.9L136.5,313.1z"/>
	<path d="M150.2,313.1c0.4,0.3,1,0.6,1.7,0.8c0.7,0.3,1.6,0.4,2.5,0.4c1.2,0,2.2-0.3,2.9-0.9c0.7-0.6,1.1-1.6,1.1-3
		c0-0.9-0.2-1.7-0.6-2.3c-0.4-0.7-1-1.3-1.6-1.8s-1.3-1.1-2.1-1.7c-0.7-0.5-1.4-1.1-2.1-1.8s-1.2-1.4-1.6-2.3
		c-0.4-0.8-0.6-1.9-0.6-3.1c0-1.9,0.5-3.4,1.6-4.3c1.1-0.9,2.5-1.4,4.2-1.4c1.1,0,2,0.1,2.8,0.3c0.8,0.2,1.5,0.5,2,0.8l-0.8,2.3
		c-0.4-0.3-0.9-0.5-1.6-0.7c-0.7-0.2-1.5-0.3-2.5-0.3c-1.2,0-2,0.3-2.6,0.9c-0.6,0.6-0.8,1.4-0.8,2.3c0,0.8,0.2,1.5,0.6,2.1
		c0.4,0.6,1,1.2,1.6,1.8c0.6,0.5,1.3,1.1,2.1,1.7c0.7,0.6,1.4,1.2,2.1,1.9s1.2,1.5,1.6,2.3c0.4,0.9,0.6,1.9,0.6,3.1
		c0,2-0.6,3.6-1.7,4.7c-1.1,1.1-2.7,1.7-4.7,1.7c-1.3,0-2.3-0.1-3.2-0.4c-0.8-0.3-1.5-0.5-2-0.9L150.2,313.1z"/>
	<path d="M164,292.2h9.9v2.4h-7.5v8.2h6.9v2.4h-6.9v8.8h7.7v2.4H164V292.2z"/>
	<path d="M177.7,292.2c0.3-0.1,0.7-0.1,1.1-0.2c0.4,0,0.8-0.1,1.3-0.1c0.4,0,0.8,0,1.3,0c0.4,0,0.8,0,1.2,0c1.6,0,2.9,0.3,4,0.9
		c1.1,0.6,2,1.4,2.7,2.5c0.7,1.1,1.2,2.3,1.5,3.8c0.3,1.5,0.4,3.2,0.4,5c0,1.7-0.1,3.2-0.4,4.7c-0.3,1.5-0.8,2.8-1.5,4
		c-0.7,1.1-1.6,2.1-2.7,2.8c-1.1,0.7-2.5,1-4.2,1c-0.3,0-0.6,0-1.1,0c-0.4,0-0.9,0-1.3-0.1c-0.5,0-0.9-0.1-1.3-0.1
		c-0.4,0-0.7-0.1-0.9-0.1V292.2z M182.7,294.3c-0.2,0-0.4,0-0.7,0s-0.5,0-0.7,0c-0.2,0-0.5,0-0.7,0.1c-0.2,0-0.4,0-0.5,0.1v19.6
		c0.1,0,0.2,0,0.5,0.1s0.5,0,0.7,0c0.2,0,0.5,0,0.7,0c0.2,0,0.4,0,0.5,0c1.2,0,2.2-0.3,2.9-0.8c0.8-0.6,1.4-1.3,1.9-2.2
		c0.5-0.9,0.8-2,1-3.2c0.2-1.2,0.3-2.5,0.3-3.9c0-1.2-0.1-2.4-0.3-3.6s-0.5-2.2-0.9-3.1c-0.4-0.9-1-1.6-1.8-2.2
		C184.8,294.6,183.9,294.3,182.7,294.3z"/>
	<path d="M200.6,304.3c0-4.1,0.6-7.2,1.8-9.3c1.2-2.1,3.1-3.2,5.6-3.2c1.3,0,2.5,0.3,3.4,0.9c0.9,0.6,1.7,1.4,2.3,2.5
		c0.6,1.1,1,2.4,1.3,3.9c0.3,1.5,0.4,3.3,0.4,5.2c0,4.1-0.6,7.2-1.8,9.3c-1.2,2.1-3.1,3.2-5.6,3.2c-1.3,0-2.5-0.3-3.4-0.9
		c-0.9-0.6-1.7-1.4-2.3-2.5c-0.6-1.1-1-2.4-1.3-3.9C200.8,307.9,200.6,306.2,200.6,304.3z M203.1,304.3c0,1.4,0.1,2.6,0.3,3.9
		c0.2,1.2,0.5,2.3,0.8,3.2s0.9,1.7,1.5,2.2c0.6,0.5,1.4,0.8,2.2,0.8c1.6,0,2.8-0.8,3.6-2.5c0.8-1.7,1.2-4.2,1.2-7.6
		c0-1.3-0.1-2.6-0.3-3.8c-0.2-1.2-0.5-2.3-0.8-3.2s-0.9-1.7-1.5-2.2c-0.6-0.6-1.4-0.8-2.3-0.8c-1.6,0-2.8,0.8-3.6,2.5
		C203.6,298.3,203.1,300.8,203.1,304.3z"/>
	<path d="M229.1,292.2h2.3v16.1c0,2.9-0.5,5-1.6,6.3c-1.1,1.3-2.6,1.9-4.5,1.9c-2.3,0-3.9-0.6-4.9-1.9c-1-1.3-1.6-3.2-1.6-5.8v-16.7
		h2.4v15.3c0,1.2,0.1,2.3,0.2,3.1c0.1,0.8,0.4,1.5,0.7,2.1c0.3,0.5,0.8,0.9,1.3,1.1c0.5,0.2,1.1,0.3,1.9,0.3c1.4,0,2.4-0.5,2.9-1.6
		c0.5-1.1,0.8-2.8,0.8-5.1V292.2z"/>
</g>
<g class="st1">
	<path d="M247.3,294.6h-5.5v21.7h-2.4v-21.7h-5.5v-2.4h13.4V294.6z"/>
</g>
<polygon class="st2" points="163,145.2 99.1,255.9 226.9,255.9 "/>
<line class="st3" x1="188" y1="188" x2="247" y2="160"/>
<line class="st3" x1="138" y1="188" x2="79" y2="160"/>
<ellipse class="st4" cx="163" cy="139.5" rx="44" ry="46.5"/>
<rect x="167.7" y="200.7" class="st5" width="9.2" height="14.6"/>
<path class="st5" d="M177.4,201.3c2.2,0,4.4,0.2,6.6,0.5v-2.6c-1.6-0.1-3.2-0.2-4.8-0.2c-3.3,0-6.6,0.3-9.9,0.9
	c-7.9,1.4-13.3,4.5-13.3,8.1s5.4,6.7,13.3,8.1c3.3,0.6,6.6,0.9,9.9,0.9c1.6,0,3.2-0.1,4.8-0.2v-2.3c-2.2,0.4-4.4,0.5-6.6,0.5
	c-2.7,0-5.4-0.3-8.1-0.8v-12.1C172,201.5,174.7,201.3,177.4,201.3z"/>
<path class="st6" d="M169.3,202.1v12.1c-5.9-1.1-9.9-3.4-9.9-6S163.4,203.3,169.3,202.1z"/>
<text transform="matrix(1 0 0 1 163.87 86.88)" class="st7 st8">?</text>
<text transform="matrix(1 0 0 1 216.3 129.12)" class="st7 st8">?</text>
<text transform="matrix(1 0 0 1 69.32 99.65)" class="st7 st8">?</text>
<text transform="matrix(1 0 0 1 96.32 157.65)" class="st7 st8">?</text>
<text transform="matrix(1 0 0 1 212.84 160.39)" class="st7 st8">?</text>
<text transform="matrix(1 0 0 1 87.32 118.65)" class="st7 st8">?</text>
<text transform="matrix(1 0 0 1 201.32 90.65)" class="st7 st8">?</text>
<text transform="matrix(1 0 0 1 131.32 81.65)" class="st7 st8">?</text>
<text transform="matrix(1 0 0 1 113.32 109.65)" class="st7 st8">?</text>
<text transform="matrix(1 0 0 1 240.32 130.65)" class="st7 st8">?</text>
<text transform="matrix(1 0 0 1 69.32 143.65)" class="st7 st8">?</text>
<text transform="matrix(1 0 0 1 234.32 85.65)" class="st7 st8">?</text>
<text transform="matrix(1 0 0 1 183.32 62.65)" class="st7 st8">?</text>
<text transform="matrix(1 0 0 1 99.32 72.65)" class="st7 st8">?</text>
<text transform="matrix(1 0 0 1 146.32 52.65)" class="st7 st8">?</text>
</svg>
