<?xml version="1.0" encoding="utf-8"?>
<!-- Generator: Adobe Illustrator 21.0.0, SVG Export Plug-In . SVG Version: 6.00 Build 0)  -->
<svg version="1.1" id="Layer_1" xmlns="http://www.w3.org/2000/svg" xmlns:xlink="http://www.w3.org/1999/xlink" x="0px" y="0px"
	 viewBox="0 0 325 400" style="enable-background:new 0 0 325 400;" xml:space="preserve">
<style type="text/css">
	.st0{fill:#C7B299;}
	.st1{font-family:'PTSans-Narrow';}
	.st2{font-size:34.39px;}
	.st3{fill:#FFC0AC;}
	.st4{fill:none;stroke:#808080;stroke-width:3;stroke-miterlimit:10;}
	.st5{fill:#808080;}
	.st6{fill:#FFFFFF;}
	.st7{fill:#FF0000;}
	.st8{font-size:30px;}
</style>
<title>stressed</title>
<rect class="st0" width="325" height="400"/>
<text transform="matrix(0.93 0 0 1 77.52 316.29)" class="st1 st2">STRESSED OU</text>
<text transform="matrix(0.93 0 0 1 233.4629 316.29)" class="st1 st2">T</text>
<polygon class="st3" points="163,145.2 99.1,255.9 226.9,255.9 "/>
<line class="st4" x1="188" y1="188" x2="247" y2="160"/>
<line class="st4" x1="138" y1="188" x2="79" y2="160"/>
<ellipse class="st5" cx="163" cy="139.5" rx="44" ry="46.5"/>
<rect x="167.7" y="200.7" class="st6" width="9.2" height="14.6"/>
<path class="st6" d="M177.4,201.3c2.2,0,4.4,0.2,6.6,0.5v-2.6c-1.6-0.1-3.2-0.2-4.8-0.2c-3.3,0-6.6,0.3-9.9,0.9
	c-7.9,1.4-13.3,4.5-13.3,8.1s5.4,6.7,13.3,8.1c3.3,0.6,6.6,0.9,9.9,0.9c1.6,0,3.2-0.1,4.8-0.2v-2.3c-2.2,0.4-4.4,0.5-6.6,0.5
	c-2.7,0-5.4-0.3-8.1-0.8v-12.1C172,201.5,174.7,201.3,177.4,201.3z"/>
<path class="st7" d="M169.3,202.1v12.1c-5.9-1.1-9.9-3.4-9.9-6S163.4,203.3,169.3,202.1z"/>
<text transform="matrix(1 0 0 1 163.87 86.88)" class="st1 st8">?</text>
<text transform="matrix(1 0 0 1 216.3 129.12)" class="st1 st8">?</text>
<text transform="matrix(1 0 0 1 69.32 99.65)" class="st1 st8">?</text>
<text transform="matrix(1 0 0 1 96.32 157.65)" class="st1 st8">?</text>
<text transform="matrix(1 0 0 1 212.84 160.39)" class="st1 st8">?</text>
<text transform="matrix(1 0 0 1 87.32 118.65)" class="st1 st8">?</text>
<text transform="matrix(1 0 0 1 201.32 90.65)" class="st1 st8">?</text>
<text transform="matrix(1 0 0 1 131.32 81.65)" class="st1 st8">?</text>
<text transform="matrix(1 0 0 1 113.32 109.65)" class="st1 st8">?</text>
<text transform="matrix(1 0 0 1 240.32 130.65)" class="st1 st8">?</text>
<text transform="matrix(1 0 0 1 69.32 143.65)" class="st1 st8">?</text>
<text transform="matrix(1 0 0 1 234.32 85.65)" class="st1 st8">?</text>
<text transform="matrix(1 0 0 1 183.32 62.65)" class="st1 st8">?</text>
<text transform="matrix(1 0 0 1 99.32 72.65)" class="st1 st8">?</text>
<text transform="matrix(1 0 0 1 146.32 52.65)" class="st1 st8">?</text>
</svg>
