<svg id="Layer_1" data-name="Layer 1" xmlns="http://www.w3.org/2000/svg" viewBox="0 0 325 400"><defs><style>.cls-1{fill:#c7b299;}.cls-2,.cls-5{fill:#bd81d4;}.cls-2{stroke:#000;}.cls-2,.cls-8{stroke-miterlimit:10;}.cls-3{fill:#666;}.cls-4{fill:#bd48d4;}.cls-6{font-size:20.63px;}.cls-6,.cls-9{font-family:PTSans-Narrow, PT Sans Narrow;}.cls-7,.cls-8{fill:none;}.cls-8{stroke:red;stroke-width:3px;}.cls-9{font-size:34.39px;}.cls-10{letter-spacing:-0.04em;}.cls-11{letter-spacing:-0.04em;}.cls-12{letter-spacing:-0.05em;}</style></defs><title>unmotivated</title><rect class="cls-1" width="325" height="400"/><ellipse class="cls-2" cx="115.42" cy="227.44" rx="13.92" ry="14.9"/><path class="cls-3" d="M115.31,108.23c-10,0-18.1,6.59-18.1,14.65v106c0,8.06,8.14,14.65,18.1,14.65h92.19V108.23Zm13,119.79a10.87,10.87,0,0,1-7.09,10.25h-3.62v.64A10.89,10.89,0,1,1,128.27,228Z"/><path class="cls-3" d="M97.22,197.19V90.84c0-8.09,8.14-14.71,18.1-14.71h92.19V211.9H115.31C105.36,211.9,97.22,205.29,97.22,197.19Z"/><path class="cls-4" d="M227.85,122.43V228.78c0,8.09-8.14,14.71-18.1,14.71H117.56v-5.23h3.62a10.92,10.92,0,0,0-3.62-21.14V107.72h92.19C219.71,107.72,227.85,114.34,227.85,122.43Z"/><path class="cls-5" d="M227.85,117.2V223.55c0,8.09-8.14,14.71-18.1,14.71H121.18a10.92,10.92,0,0,0-3.62-21.14V102.5h92.19C219.71,102.5,227.85,109.11,227.85,117.2Z"/><path class="cls-5" d="M227.85,106V222.76c0,8.88-8.14,16.14-18.1,16.14H117.56v-149h92.19C219.71,89.89,227.85,97.15,227.85,106Z"/><path class="cls-4" d="M227.85,96.06V202.42c0,8.09-8.14,14.71-18.1,14.71H117.56V81.35h92.19C219.71,81.35,227.85,88,227.85,96.06Z"/><path class="cls-5" d="M227.85,90.84V197.19c0,8.09-8.14,14.71-18.1,14.71H117.56V76.13h92.19C219.71,76.13,227.85,82.75,227.85,90.84Z"/><text class="cls-6" transform="translate(140.87 190.3) scale(0.93 1)">EME 999</text><line class="cls-7" x1="71.52" y1="54.35" x2="259.98" y2="280.17"/><line class="cls-8" x1="83.83" y1="58.37" x2="254.09" y2="260.11"/><line class="cls-8" x1="73.22" y1="259.89" x2="242.22" y2="54"/><text class="cls-9" transform="translate(80.09 316.29) scale(0.93 1)">UNM<tspan class="cls-10" x="58.32" y="0">O</tspan><tspan x="75.93" y="0">TI</tspan><tspan class="cls-11" x="99.31" y="0">V</tspan><tspan class="cls-12" x="113.89" y="0">A</tspan><tspan x="128.27" y="0">TED</tspan></text></svg>