<?xml version="1.0" encoding="utf-8"?>
<!-- Generator: Adobe Illustrator 21.0.0, SVG Export Plug-In . SVG Version: 6.00 Build 0)  -->
<svg version="1.1" id="Layer_1" xmlns="http://www.w3.org/2000/svg" xmlns:xlink="http://www.w3.org/1999/xlink" x="0px" y="0px"
	 viewBox="0 0 325 400" style="enable-background:new 0 0 325 400;" xml:space="preserve">
<style type="text/css">
	.st0{fill:#C7B299;}
	.st1{fill:#BD81D4;stroke:#000000;stroke-miterlimit:10;}
	.st2{fill:#666666;}
	.st3{fill:#BD48D4;}
	.st4{fill:#BD81D4;}
	.st5{font-family:'PTSans-Narrow';}
	.st6{font-size:20.63px;}
	.st7{fill:none;}
	.st8{fill:none;stroke:#FF0000;stroke-width:3;stroke-miterlimit:10;}
	.st9{font-size:34.39px;}
	.st10{letter-spacing:-1.1;}
</style>
<title>unmotivated</title>
<rect class="st0" width="325" height="400"/>
<ellipse class="st1" cx="115.4" cy="227.4" rx="13.9" ry="14.9"/>
<path class="st2" d="M115.3,108.2c-10,0-18.1,6.6-18.1,14.7v106c0,8.1,8.1,14.6,18.1,14.6h92.2V108.2H115.3z M128.3,228
	c0,4.6-2.8,8.7-7.1,10.2h-3.6v0.6c-6,0.1-11-4.7-11.1-10.7s4.7-11,10.7-11.1s11,4.7,11.1,10.7C128.3,227.9,128.3,227.9,128.3,228
	L128.3,228z"/>
<path class="st2" d="M97.2,197.2V90.8c0-8.1,8.1-14.7,18.1-14.7h92.2v135.8h-92.2C105.4,211.9,97.2,205.3,97.2,197.2z"/>
<path class="st3" d="M227.9,122.4v106.3c0,8.1-8.1,14.7-18.1,14.7h-92.2v-5.2h3.6c5.6-2.1,8.5-8.4,6.4-14.1c-1.6-4.2-5.5-7-10-7.1
	V107.7h92.2C219.7,107.7,227.9,114.3,227.9,122.4z"/>
<path class="st4" d="M227.9,117.2v106.4c0,8.1-8.1,14.7-18.1,14.7h-88.6c5.6-2.1,8.5-8.4,6.4-14.1c-1.6-4.2-5.5-7-10-7.1V102.5h92.2
	C219.7,102.5,227.9,109.1,227.9,117.2z"/>
<path class="st4" d="M227.9,106v116.8c0,8.9-8.1,16.1-18.1,16.1h-92.2v-149h92.2C219.7,89.9,227.9,97.2,227.9,106z"/>
<path class="st3" d="M227.9,96.1v106.4c0,8.1-8.1,14.7-18.1,14.7h-92.2V81.3h92.2C219.7,81.3,227.9,88,227.9,96.1z"/>
<path class="st4" d="M227.9,90.8v106.4c0,8.1-8.1,14.7-18.1,14.7h-92.2V76.1h92.2C219.7,76.1,227.9,82.8,227.9,90.8z"/>
<text transform="matrix(0.93 0 0 1 140.8701 190.2998)" class="st5 st6">EME 999</text>
<line class="st7" x1="71.5" y1="54.3" x2="260" y2="280.2"/>
<line class="st8" x1="83.8" y1="58.4" x2="254.1" y2="260.1"/>
<line class="st8" x1="73.2" y1="259.9" x2="242.2" y2="54"/>
<text transform="matrix(0.93 0 0 1 80.0903 316.29)" class="st5 st9">UNM</text>
<text transform="matrix(0.93 0 0 1 134.3276 316.29)" class="st5 st9 st10">O</text>
<text transform="matrix(0.93 0 0 1 150.7051 316.29)" class="st5 st9">TI</text>
<text transform="matrix(0.93 0 0 1 172.4482 316.29)" class="st5 st9 st10">V</text>
<text transform="matrix(0.93 0 0 1 186.0078 316.29)" class="st5 st9 st10">A</text>
<text transform="matrix(0.93 0 0 1 199.3809 316.29)" class="st5 st9">TED</text>
</svg>
