<?xml version="1.0" encoding="utf-8"?>
<!-- Generator: Adobe Illustrator 21.0.0, SVG Export Plug-In . SVG Version: 6.00 Build 0)  -->
<svg version="1.1" id="Layer_1" xmlns="http://www.w3.org/2000/svg" xmlns:xlink="http://www.w3.org/1999/xlink" x="0px" y="0px"
	 viewBox="0 0 325 400" style="enable-background:new 0 0 325 400;" xml:space="preserve">
<style type="text/css">
	.st0{fill:#C7B299;}
	.st1{fill:#BD81D4;stroke:#000000;stroke-miterlimit:10;}
	.st2{fill:#666666;}
	.st3{fill:#BD48D4;}
	.st4{fill:#BD81D4;}
	.st5{font-family:'PTSans-Narrow';}
	.st6{font-size:20.63px;}
	.st7{fill:none;}
	.st8{fill:none;stroke:#FF0000;stroke-width:3;stroke-miterlimit:10;}
	.st9{enable-background:new    ;}
</style>
<title>unmotivated</title>
<rect class="st0" width="325" height="400"/>
<ellipse class="st1" cx="115.4" cy="227.4" rx="13.9" ry="14.9"/>
<path class="st2" d="M115.3,108.2c-10,0-18.1,6.6-18.1,14.7v106c0,8.1,8.1,14.6,18.1,14.6h92.2V108.2H115.3z M128.3,228
	c0,4.6-2.8,8.7-7.1,10.2h-3.6v0.6c-6,0.1-11-4.7-11.1-10.7s4.7-11,10.7-11.1s11,4.7,11.1,10.7C128.3,227.9,128.3,227.9,128.3,228
	L128.3,228z"/>
<path class="st2" d="M97.2,197.2V90.8c0-8.1,8.1-14.7,18.1-14.7h92.2v135.8h-92.2C105.4,211.9,97.2,205.3,97.2,197.2z"/>
<path class="st3" d="M227.9,122.4v106.3c0,8.1-8.1,14.7-18.1,14.7h-92.2v-5.2h3.6c5.6-2.1,8.5-8.4,6.4-14.1c-1.6-4.2-5.5-7-10-7.1
	V107.7h92.2C219.7,107.7,227.9,114.3,227.9,122.4z"/>
<path class="st4" d="M227.9,117.2v106.4c0,8.1-8.1,14.7-18.1,14.7h-88.6c5.6-2.1,8.5-8.4,6.4-14.1c-1.6-4.2-5.5-7-10-7.1V102.5h92.2
	C219.7,102.5,227.9,109.1,227.9,117.2z"/>
<path class="st4" d="M227.9,106v116.8c0,8.9-8.1,16.1-18.1,16.1h-92.2v-149h92.2C219.7,89.9,227.9,97.2,227.9,106z"/>
<path class="st3" d="M227.9,96.1v106.4c0,8.1-8.1,14.7-18.1,14.7h-92.2V81.3h92.2C219.7,81.3,227.9,88,227.9,96.1z"/>
<path class="st4" d="M227.9,90.8v106.4c0,8.1-8.1,14.7-18.1,14.7h-92.2V76.1h92.2C219.7,76.1,227.9,82.8,227.9,90.8z"/>
<text transform="matrix(0.93 0 0 1 140.8701 190.2998)" class="st5 st6">EME 999</text>
<line class="st7" x1="71.5" y1="54.3" x2="260" y2="280.2"/>
<line class="st8" x1="83.8" y1="58.4" x2="254.1" y2="260.1"/>
<line class="st8" x1="73.2" y1="259.9" x2="242.2" y2="54"/>
<g class="st9">
	<path d="M92.4,292.2h2.3v16.1c0,2.9-0.5,5-1.6,6.3c-1.1,1.3-2.6,1.9-4.5,1.9c-2.3,0-3.9-0.6-4.9-1.9c-1-1.3-1.6-3.2-1.6-5.8v-16.7
		h2.4v15.3c0,1.2,0.1,2.3,0.2,3.1c0.1,0.8,0.4,1.5,0.7,2.1c0.3,0.5,0.8,0.9,1.3,1.1c0.5,0.2,1.1,0.3,1.9,0.3c1.4,0,2.4-0.5,2.9-1.6
		c0.5-1.1,0.8-2.8,0.8-5.1V292.2z"/>
	<path d="M102.2,301l-1.4-3.8h-0.1l0.4,3.8v15.3h-2.3v-24.5h1.4l8.3,15.6l1.3,3.6h0.1l-0.4-3.6v-15.2h2.3v24.5h-1.5L102.2,301z"/>
	<path d="M129.9,300.5l0.3-3.6H130l-1,3.4l-4.5,10.5h-0.8l-4.7-10.5l-1-3.4h-0.1l0.4,3.6v15.8H116v-24.1h2l5.4,11.8l0.8,2.8h0.1
		l0.8-2.9l5.1-11.8h2.1v24.1h-2.4V300.5z"/>
</g>
<g class="st9">
	<path d="M135.7,304.3c0-4.1,0.6-7.2,1.8-9.3c1.2-2.1,3.1-3.2,5.6-3.2c1.3,0,2.5,0.3,3.4,0.9c0.9,0.6,1.7,1.4,2.3,2.5
		c0.6,1.1,1,2.4,1.3,3.9c0.3,1.5,0.4,3.3,0.4,5.2c0,4.1-0.6,7.2-1.8,9.3c-1.2,2.1-3.1,3.2-5.6,3.2c-1.3,0-2.5-0.3-3.4-0.9
		c-0.9-0.6-1.7-1.4-2.3-2.5c-0.6-1.1-1-2.4-1.3-3.9S135.7,306.2,135.7,304.3z M138.2,304.3c0,1.4,0.1,2.6,0.3,3.9
		c0.2,1.2,0.5,2.3,0.8,3.2s0.9,1.7,1.5,2.2c0.6,0.5,1.4,0.8,2.2,0.8c1.6,0,2.8-0.8,3.6-2.5c0.8-1.7,1.2-4.2,1.2-7.6
		c0-1.3-0.1-2.6-0.3-3.8c-0.2-1.2-0.5-2.3-0.8-3.2s-0.9-1.7-1.5-2.2c-0.6-0.6-1.4-0.8-2.3-0.8c-1.6,0-2.8,0.8-3.6,2.5
		S138.2,300.8,138.2,304.3z"/>
</g>
<g class="st9">
	<path d="M164.6,294.6h-5.5v21.7h-2.4v-21.7h-5.5v-2.4h13.4V294.6z"/>
	<path d="M167.5,292.2h2.4v24.1h-2.4V292.2z"/>
</g>
<g class="st9">
	<path d="M179.4,308.7l0.6,3.7h0.1l0.6-3.7l4.2-16.4h2.5l-6.8,24.5h-1.3l-6.9-24.5h2.7L179.4,308.7z"/>
</g>
<g class="st9">
	<path d="M196.6,309.5h-6.3l-1.8,6.7h-2.4l6.7-24.5h1.3l6.7,24.5h-2.5L196.6,309.5z M191,307.3h5.1l-1.9-7.5l-0.6-3.6h-0.1l-0.6,3.7
		L191,307.3z"/>
</g>
<g class="st9">
	<path d="M213.2,294.6h-5.5v21.7h-2.4v-21.7h-5.5v-2.4h13.4V294.6z"/>
	<path d="M215.7,292.2h9.9v2.4h-7.5v8.2h6.9v2.4h-6.9v8.8h7.7v2.4h-10.1V292.2z"/>
	<path d="M229.4,292.2c0.3-0.1,0.7-0.1,1.1-0.2c0.4,0,0.8-0.1,1.3-0.1c0.4,0,0.8,0,1.3,0c0.4,0,0.8,0,1.2,0c1.6,0,2.9,0.3,4,0.9
		c1.1,0.6,2,1.4,2.7,2.5c0.7,1.1,1.2,2.3,1.5,3.8c0.3,1.5,0.4,3.2,0.4,5c0,1.7-0.1,3.2-0.4,4.7c-0.3,1.5-0.8,2.8-1.5,4
		c-0.7,1.1-1.6,2.1-2.7,2.8c-1.1,0.7-2.5,1-4.2,1c-0.3,0-0.6,0-1.1,0c-0.4,0-0.9,0-1.3-0.1c-0.5,0-0.9-0.1-1.3-0.1
		c-0.4,0-0.7-0.1-0.9-0.1V292.2z M234.4,294.3c-0.2,0-0.4,0-0.7,0s-0.5,0-0.7,0c-0.2,0-0.5,0-0.7,0.1c-0.2,0-0.4,0-0.5,0.1v19.6
		c0.1,0,0.2,0,0.5,0.1s0.5,0,0.7,0c0.2,0,0.5,0,0.7,0c0.2,0,0.4,0,0.5,0c1.2,0,2.2-0.3,2.9-0.8c0.8-0.6,1.4-1.3,1.9-2.2
		c0.5-0.9,0.8-2,1-3.2c0.2-1.2,0.3-2.5,0.3-3.9c0-1.2-0.1-2.4-0.3-3.6s-0.5-2.2-0.9-3.1c-0.4-0.9-1-1.6-1.8-2.2
		C236.6,294.6,235.6,294.3,234.4,294.3z"/>
</g>
</svg>
